<svg id="kity_svg_6" xmlns="http://www.w3.org/2000/svg" xmlns:xlink="http://www.w3.org/1999/xlink" version="1.1" width="339" height="132" style="background: rgb(251, 251, 251); visibility: visible;" viewBox="0 0 339 132"><defs id="kity_defs_7"><linearGradient id="kity_linearGradient_17" x1="0" y1="0" x2="0" y2="1"><stop id="kity_stop_18" offset="0" stop-color="rgb(255, 255, 255)"></stop><stop id="kity_stop_19" offset="1" stop-color="rgb(204, 204, 204)"></stop></linearGradient><marker id="kity_marker_2" orient="auto" refX="6" refY="0" viewBox="-7 -7 14 14" markerWidth="7" markerHeight="7" markerUnits="userSpaceOnUse"><path id="kity_path_3" fill="rgb(115, 161, 191)" stroke="none" d="M6,0A6,6,0,1,1,-6,0A6,6,0,1,1,6,0"></path></marker></defs><g id="kity_g_8"><g id="minder1" text-rendering="optimize-speed"><g id="minder_connect_group1"><path id="kity_path_31" fill="none" stroke="rgb(115, 161, 191)" stroke-width="1" d="M61.50000628083944,66.5000077560544A159,33,0,0,1,220.50000628083944,33.5000077560544"></path><path id="kity_path_50" fill="none" stroke="rgb(115, 161, 191)" stroke-width="1" d="M61.50000628083944,66.5000077560544A159,33,0,0,0,220.50000628083944,99.5000077560544"></path></g><g id="minder_node1"><path id="node_outline1" fill="rgb(115, 161, 191)" stroke="rgb(115, 161, 191)" d="M25.500006280839443,46.5000077560544h72a5,5,0,0,1,5,5v30a5,5,0,0,1,-5,5h-72a5,5,0,0,1,-5,-5v-30a5,5,0,0,1,5,-5z" stroke-width="3"></path><g id="node_text1" fill="white"><text id="kity_text_22" text-rendering="inherit" font-size="16" dy=".8em" y="56.100007720291615" x="44.50000628083944">教师</text></g></g><g id="kity_g_12"><path id="kity_path_13" fill="none" stroke="none" d="M44.50000628083944,66.5000077560544h0v0h0z"></path></g><g id="kity_g_14"><path id="kity_path_15" fill="none" stroke="none" d="M44.50000628083944,66.5000077560544h0v0h0z"></path><path id="kity_path_16" fill="none" stroke="none"></path></g><g id="minder_node2"><g id="node_expander1" style="cursor: pointer;" display="none"><path id="kity_path_36" fill="white" stroke="gray" d="M221.500008828938,33.50000726431608A6,6,0,1,1,209.500008828938,33.50000726431608A6,6,0,1,1,221.500008828938,33.50000726431608"></path><path id="kity_path_37" fill="none" stroke="gray"></path></g><path id="node_outline2" fill="rgb(238, 243, 246)" stroke="rgb(115, 161, 191)" d="M225.50000923126936,20.500007264316082h91a3,3,0,0,1,3,3v20a3,3,0,0,1,-3,3h-91a3,3,0,0,1,-3,-3v-20a3,3,0,0,1,3,-3z" stroke-width="1"></path><g id="node_text2" fill="black"><text id="kity_text_33" text-rendering="inherit" font-size="14" dy=".8em" y="24.400007233023643" x="242.50000923126936">分支主题</text></g><g id="node_priority1" display="none"><path id="kity_path_40" fill="#B25000" stroke="none" d="M218.0000088661909,37.00000712275505c0,3.866,3.134,7,7,7h6c3.866,0,7,-3.134,7,-7V31.00000712275505H218.0000088661909V37.00000712275505z"></path><path id="kity_path_41" fill="#FF962E" stroke="none" d="M238.0000088661909,34.00000712275505c0,3.866,-3.134,7,-7,7H225.0000088661909c-3.866,0,-7,-3.134,-7,-7V31.00000712275505c0,-3.866,3.134,-7,7,-7h6c3.866,0,7,3.134,7,7V34.00000712275505z" opacity="0.8"></path><text id="kity_text_42" text-rendering="geometricPrecision" x="227.00000885874033" y="33.50000711530447" text-anchor="middle" font-style="italic" font-size="12" fill="white" dy="5">4</text></g><g id="node_progress1" display="none"><path id="kity_path_44" fill="#FFED83" stroke="none" d="M237.00000901520252,34.00000727176666A9,9,0,1,1,219.00000901520252,34.00000727176666A9,9,0,1,1,237.00000901520252,34.00000727176666"></path><path id="kity_path_45" fill="#43BC00" stroke="none" d="M228.00000901520252,34.00000727176666L237.00000901520252,34.00000727176666A9,9,0,0,0,234.36397004588144,27.636046241087733A9,9,0,0,0,228.00000901520252,25.000007271766663L228.00000901520252,34.00000727176666z"></path><path id="kity_path_46" fill="#8E8E8E" stroke="none" d="M228.0000088661909,27.00000712275505c4.418,0,8,3.582,8,8h1c0,-5.523,-3.477,-10,-9,-10S219.0000088661909,29.47700712275505,219.0000088661909,35.00000712275505h1C220.0000088661909,30.58200712275505,223.5820088661909,27.00000712275505,228.0000088661909,27.00000712275505z"></path><path id="kity_path_48" fill="#EEE" stroke="none" d="M243.81200901520253,41.89600727176666l-6.75,6.75l-4.5,-4.5L234.25000901520252,42.459007271766666l2.812,2.803l5.062,-5.053L243.81200901520253,41.89600727176666z" display="none"></path><path id="kity_path_47" fill="url(#kity_linearGradient_17)" stroke="none" d="M228.0000088661909,24.00000712275505C222.4770088661909,24.00000712275505,218.0000088661909,28.47700712275505,218.0000088661909,34.00000712275505c0,5.523,4.477,10,10,10s10,-4.477,10,-10C238.0000088661909,28.47700712275505,233.5230088661909,24.00000712275505,228.0000088661909,24.00000712275505zM228.0000088661909,42.00000712275505c-4.418,0,-8,-3.582,-8,-8s3.582,-8,8,-8s8,3.582,8,8S232.41800886619092,42.00000712275505,228.0000088661909,42.00000712275505z"></path></g></g><g id="minder_node3"><g id="node_expander2" style="cursor: pointer;" display="none"><path id="kity_path_55" fill="white" stroke="gray" d="M221.500008828938,99.50000824779272A6,6,0,1,1,209.500008828938,99.50000824779272A6,6,0,1,1,221.500008828938,99.50000824779272"></path><path id="kity_path_56" fill="none" stroke="gray"></path></g><path id="node_outline3" fill="rgb(238, 243, 246)" stroke="rgb(115, 161, 191)" d="M225.50000923126936,86.50000824779272h91a3,3,0,0,1,3,3v20a3,3,0,0,1,-3,3h-91a3,3,0,0,1,-3,-3v-20a3,3,0,0,1,3,-3z" stroke-width="1"></path><g id="node_text3" fill="black"><text id="kity_text_52" text-rendering="inherit" font-size="14" dy=".8em" y="90.40000821650028" x="242.50000923126936">分支主题</text></g></g></g></g></svg>